<?xml version="1.0" encoding="UTF-8" standalone="no"?>
<!-- Generator: Adobe Illustrator 14.0.0, SVG Export Plug-In . SVG Version: 6.00 Build 43363)  -->

<svg
   xmlns:dc="http://purl.org/dc/elements/1.1/"
   xmlns:cc="http://creativecommons.org/ns#"
   xmlns:rdf="http://www.w3.org/1999/02/22-rdf-syntax-ns#"
   xmlns:svg="http://www.w3.org/2000/svg"
   xmlns="http://www.w3.org/2000/svg"
   xmlns:sodipodi="http://sodipodi.sourceforge.net/DTD/sodipodi-0.dtd"
   xmlns:inkscape="http://www.inkscape.org/namespaces/inkscape"
   version="1.1"
   id="icon-m-input-methods-shift-layer"
   x="0px"
   y="0px"
   width="40"
   height="40"
   viewBox="0 0 40 40"
   xml:space="preserve"
   inkscape:version="0.48.2 r9819"
   sodipodi:docname="icon-shift-pressed.svg"
   inkscape:export-filename="C:\Users\Stephan\Desktop\Photoshop Zeugs\nemoux-master\maliit\new\icon-shift-pressed.png"
   inkscape:export-xdpi="90"
   inkscape:export-ydpi="90"><metadata
   id="metadata14"><rdf:RDF><cc:Work
       rdf:about=""><dc:format>image/svg+xml</dc:format><dc:type
         rdf:resource="http://purl.org/dc/dcmitype/StillImage" /><dc:title></dc:title></cc:Work></rdf:RDF></metadata><defs
   id="defs12" /><sodipodi:namedview
   pagecolor="#00ffff"
   bordercolor="#666666"
   borderopacity="1"
   objecttolerance="10"
   gridtolerance="10"
   guidetolerance="10"
   inkscape:pageopacity="0"
   inkscape:pageshadow="2"
   inkscape:window-width="1920"
   inkscape:window-height="1148"
   id="namedview10"
   showgrid="true"
   inkscape:zoom="16"
   inkscape:cx="-9.9606836"
   inkscape:cy="27.259455"
   inkscape:window-x="-8"
   inkscape:window-y="-8"
   inkscape:window-maximized="1"
   inkscape:current-layer="icon-m-input-methods-shift-layer"><inkscape:grid
     type="xygrid"
     id="grid3770"
     empspacing="5"
     visible="true"
     enabled="true"
     snapvisiblegridlinesonly="true" /></sodipodi:namedview>

<g
   id="g3798"
   style="fill:#000000;fill-opacity:1;stroke:none"><path
     sodipodi:nodetypes="cccccccccccccccccccccccccccccc"
     inkscape:connector-curvature="0"
     id="path3772"
     d="m 19.5,7.5 -10,14 0,1 3,0 0,9 2,0 0,1 11,0 0,-1 2,0 0,-9 3,0 0,-1 -10,-14 z m 0.09375,2.21875 0.8125,0 7.875,11.03125 0,0.8125 -2.375,0 0,8.439928 -1.5625,0 0,0.78125 -8.6875,0 0,-0.78125 -1.5625,0 0,-8.439928 -2.375,0 0,-0.8125 z"
     style="fill:#000000;fill-opacity:1;stroke:none" /><path
     inkscape:connector-curvature="0"
     id="path3776"
     d="m 16,28 8,0 0,1 -8,0 z"
     style="fill:#000000;fill-opacity:1;stroke:none" /></g></svg>